<?xml version="1.0" standalone="no"?>
<!DOCTYPE svg PUBLIC "-//W3C//DTD SVG 20010904//EN"
 "http://www.w3.org/TR/2001/REC-SVG-20010904/DTD/svg10.dtd">
<svg version="1.0" xmlns="http://www.w3.org/2000/svg"
 width="1920.000000pt" height="1920.000000pt" viewBox="0 0 1920.000000 1920.000000"
 <!-- width="16pt" height="16pt" viewBox="0 0 16 16" -->
 preserveAspectRatio="xMidYMid meet">
<metadata>
Created by potrace 1.15, written by Peter Selinger 2001-2017
</metadata>
<g transform="translate(0.000000,1920.000000) scale(0.100000,-0.100000)"
fill="#000000" stroke="none">
<path d="M9030 19189 c-2997 -185 -5720 -1739 -7392 -4219 -842 -1249 -1378
-2674 -1567 -4170 -52 -410 -71 -726 -71 -1200 0 -474 19 -790 71 -1200 348
-2751 1863 -5214 4159 -6762 1249 -842 2674 -1378 4170 -1567 410 -52 726 -71
1200 -71 474 0 790 19 1200 71 2751 348 5214 1863 6762 4159 842 1249 1378
2674 1567 4170 52 410 71 726 71 1200 0 474 -19 790 -71 1200 -348 2751 -1863
5214 -4159 6762 -516 348 -1052 639 -1615 878 -1029 435 -2085 681 -3215 750
-193 12 -914 11 -1110 -1z m-1652 -4989 l2222 -809 2223 809 c1222 445 2230
812 2240 815 16 7 17 -188 17 -3996 0 -2529 -4 -4074 -10 -4194 -32 -598 -152
-1105 -389 -1640 -288 -647 -759 -1247 -1329 -1692 -646 -505 -1402 -815
-2242 -920 -209 -26 -811 -26 -1020 0 -474 59 -896 176 -1325 366 -670 298
-1285 788 -1737 1388 -422 559 -705 1204 -832 1903 -33 183 -54 368 -66 595
-6 120 -10 1665 -10 4194 0 3808 1 4003 18 3996 9 -3 1017 -370 2240 -815z"/>
</g>
</svg>
